<svg xmlns="http://www.w3.org/2000/svg" style="display:none" aria-hidden="true">
  
  <defs>

    
    <symbol id="i-market" viewBox="0 0 24 24">
      <g fill="none" stroke="currentColor" stroke-width="1.7" stroke-linecap="round" stroke-linejoin="round">
        <path d="M3.7 9V8l1.6-3.5h13.4L20.3 8v1"></path>
        <path d="M3.7 9a2.77 2.77 0 0 0 5.53 0 2.77 2.77 0 0 0 5.54 0 2.77 2.77 0 0 0 5.53 0"></path>
        <path d="M5.4 12.6v6.9h13.2v-6.9"></path>
        <path d="M10 19.5v-3.7a2 2 0 0 1 4 0v3.7"></path>
      </g>
    </symbol>

    <symbol id="i-sell" viewBox="0 0 24 24">
      <g fill="none" stroke="currentColor" stroke-width="1.7" stroke-linecap="round" stroke-linejoin="round">
        <path d="M13.2 3.4a2.3 2.3 0 0 1 1.62.67l5.11 5.11a2.3 2.3 0 0 1 0 3.25l-7.5 7.5a2.3 2.3 0 0 1-3.25 0l-5.11-5.1A2.3 2.3 0 0 1 3.4 13.2V5.7a2.3 2.3 0 0 1 2.3-2.3Z"></path>
        <circle cx="8.1" cy="8.1" r="1.45"></circle>
      </g>
    </symbol>

    <symbol id="i-inbox" viewBox="0 0 24 24">
      <g fill="none" stroke="currentColor" stroke-width="1.7" stroke-linecap="round" stroke-linejoin="round">
        <path d="M4 7.3A3.3 3.3 0 0 1 7.3 4h9.4A3.3 3.3 0 0 1 20 7.3v5.4a3.3 3.3 0 0 1-3.3 3.3H9.9l-4.2 3.6v-3.7A3.3 3.3 0 0 1 4 12.7Z"></path>
      </g>
    </symbol>

    <symbol id="i-activity" viewBox="0 0 24 24">
      <g fill="none" stroke="currentColor" stroke-width="1.7" stroke-linecap="round" stroke-linejoin="round">
        <path d="M4.2 7.8h15M15.6 4.2l3.6 3.6-3.6 3.6"></path>
        <path d="M19.8 16.2h-15M8.4 12.6l-3.6 3.6 3.6 3.6"></path>
      </g>
    </symbol>

    <symbol id="i-you" viewBox="0 0 24 24">
      <g fill="none" stroke="currentColor" stroke-width="1.7" stroke-linecap="round" stroke-linejoin="round">
        <circle cx="12" cy="8" r="3.6"></circle>
        <path d="M4.9 19.7a7.3 7.3 0 0 1 14.2 0"></path>
      </g>
    </symbol>

    
    <symbol id="i-market-fill" viewBox="0 0 24 24">
      <path fill="currentColor" d="M5.05 3.65h13.9a.9.9 0 0 1 .83.55L21.2 7.6c.06.13.08.27.08.4v.9a3.62 3.62 0 0 1-6.3 2.44 3.66 3.66 0 0 1-5.96 0A3.62 3.62 0 0 1 2.72 8.9V8c0-.13.03-.27.08-.4l1.42-3.4a.9.9 0 0 1 .83-.55Z"></path>
      <path fill="currentColor" fill-rule="evenodd" d="M4.55 12.94a3.9 3.9 0 0 0 1.7-.02v6.58a.9.9 0 0 1-.02 0h11.54a.9.9 0 0 1-.02 0v-6.58a3.9 3.9 0 0 0 1.7.02v6.66a1.8 1.8 0 0 1-1.8 1.8H6.35a1.8 1.8 0 0 1-1.8-1.8ZM9.15 21.4v-5.6a2.85 2.85 0 0 1 5.7 0v5.6h-1.7v-5.6a1.15 1.15 0 0 0-2.3 0v5.6Z"></path>
    </symbol>

    <symbol id="i-sell-fill" viewBox="0 0 24 24">
      <path fill="currentColor" fill-rule="evenodd" d="M13.2 2.55a3.15 3.15 0 0 1 2.22.92l5.11 5.11a3.15 3.15 0 0 1 0 4.45l-7.5 7.5a3.15 3.15 0 0 1-4.45 0l-5.11-5.1a3.15 3.15 0 0 1-.92-2.23V5.7a3.15 3.15 0 0 1 3.15-3.15ZM8.1 6.1a2 2 0 1 0 0 4 2 2 0 0 0 0-4Z"></path>
    </symbol>

    <symbol id="i-inbox-fill" viewBox="0 0 24 24">
      <path fill="currentColor" d="M7.3 3.15h9.4A4.15 4.15 0 0 1 20.85 7.3v5.4a4.15 4.15 0 0 1-4.15 4.15h-6.5l-3.9 3.34a.9.9 0 0 1-1.48-.69v-3.53a4.15 4.15 0 0 1-1.67-3.27V7.3A4.15 4.15 0 0 1 7.3 3.15Z"></path>
    </symbol>

    <symbol id="i-activity-fill" viewBox="0 0 24 24">
      <g fill="none" stroke="currentColor" stroke-width="2.5" stroke-linecap="round" stroke-linejoin="round">
        <path d="M4.4 7.8h14.6M15.7 4.3l3.5 3.5-3.5 3.5"></path>
        <path d="M19.6 16.2H5M8.3 12.7l-3.5 3.5 3.5 3.5"></path>
      </g>
    </symbol>

    <symbol id="i-you-fill" viewBox="0 0 24 24">
      <circle fill="currentColor" cx="12" cy="8" r="4.45"></circle>
      <path fill="currentColor" d="M12 13.55c3.98 0 7.3 2.55 8.05 6.05a.95.95 0 0 1-.93 1.15H4.88a.95.95 0 0 1-.93-1.15c.75-3.5 4.07-6.05 8.05-6.05Z"></path>
    </symbol>

    
    <symbol id="i-shield-check" viewBox="0 0 24 24">
      <g fill="none" stroke="currentColor" stroke-width="1.7" stroke-linecap="round" stroke-linejoin="round">
        <path d="M12 3.1 5.2 5.5v5.1c0 4.6 2.85 7.75 6.8 9.3 3.95-1.55 6.8-4.7 6.8-9.3V5.5Z"></path>
        <path d="m8.9 11.7 2.1 2.1 4.1-4.2"></path>
      </g>
    </symbol>

    <symbol id="i-shield-check-fill" viewBox="0 0 24 24">
      <path fill="currentColor" fill-rule="evenodd" d="M11.72 2.3a.85.85 0 0 1 .56 0l6.8 2.4c.34.12.57.44.57.8v5.1c0 4.97-3.1 8.4-7.34 10.1a.85.85 0 0 1-.62 0C7.45 19 4.35 15.57 4.35 10.6V5.5c0-.36.23-.68.57-.8ZM15.7 9.02a.85.85 0 0 0-1.2-.02l-3.49 3.57-1.5-1.5a.85.85 0 0 0-1.2 1.2l2.1 2.1c.34.33.88.33 1.21 0l4.1-4.15a.85.85 0 0 0-.02-1.2Z"></path>
    </symbol>

    <symbol id="i-scale" viewBox="0 0 24 24">
      <g fill="none" stroke="currentColor" stroke-width="1.7" stroke-linecap="round" stroke-linejoin="round">
        <path d="M12 3.6v16.2M8.4 19.8h7.2M5.6 6.4h12.8"></path>
        <path d="M5.6 6.4 3.1 11.6a2.9 2.9 0 0 0 5 0Z"></path>
        <path d="m18.4 6.4-2.5 5.2a2.9 2.9 0 0 0 5 0Z"></path>
      </g>
    </symbol>

    <symbol id="i-qr" viewBox="0 0 24 24">
      <g fill="none" stroke="currentColor" stroke-width="1.7" stroke-linejoin="round">
        <rect x="3.6" y="3.6" width="6.4" height="6.4" rx="1.5"></rect>
        <rect x="14" y="3.6" width="6.4" height="6.4" rx="1.5"></rect>
        <rect x="3.6" y="14" width="6.4" height="6.4" rx="1.5"></rect>
      </g>
      <path fill="currentColor" d="M6 6h1.6v1.6H6ZM16.4 6H18v1.6h-1.6ZM6 16.4h1.6V18H6ZM14 14h2.7v2.7H14ZM17.7 16.6h2.7v2.7h-2.7ZM14 18.6h1.7v1.8H14ZM19 14h1.4v1.6H19Z"></path>
    </symbol>

    <symbol id="i-facts" viewBox="0 0 24 24">
      <g fill="none" stroke="currentColor" stroke-width="1.7" stroke-linecap="round" stroke-linejoin="round">
        <path d="m3.9 6.1 1.4 1.4 2.5-2.6M11.2 6.4H20"></path>
        <path d="m3.9 12.3 1.4 1.4 2.5-2.6M11.2 12.6H20"></path>
        <path d="m3.9 18.5 1.4 1.4 2.5-2.6M11.2 18.8H20"></path>
      </g>
    </symbol>

    <symbol id="i-flag" viewBox="0 0 24 24">
      <g fill="none" stroke="currentColor" stroke-width="1.7" stroke-linecap="round" stroke-linejoin="round">
        <path d="M5.8 20.8V4.2"></path>
        <path d="M5.8 4.9c1.6-.95 3.2-.95 4.8 0s3.2.95 4.8 0c.9-.53 1.8-.8 2.7-.8v7.6c-.9 0-1.8.27-2.7.8-1.6.95-3.2.95-4.8 0s-3.2-.95-4.8 0"></path>
      </g>
    </symbol>

    <symbol id="i-alert" viewBox="0 0 24 24">
      <g fill="none" stroke="currentColor" stroke-width="1.7" stroke-linecap="round" stroke-linejoin="round">
        <path d="M10.4 4.6 3.2 17a1.85 1.85 0 0 0 1.6 2.78h14.4A1.85 1.85 0 0 0 20.8 17L13.6 4.6a1.85 1.85 0 0 0-3.2 0Z"></path>
        <path d="M12 9.4v4.4M12 16.9h.01"></path>
      </g>
    </symbol>

    <symbol id="i-block" viewBox="0 0 24 24">
      <g fill="none" stroke="currentColor" stroke-width="1.7" stroke-linecap="round">
        <circle cx="12" cy="12" r="8.3"></circle>
        <path d="M6.15 6.15 17.85 17.85"></path>
      </g>
    </symbol>

    <symbol id="i-lock" viewBox="0 0 24 24">
      <g fill="none" stroke="currentColor" stroke-width="1.7" stroke-linecap="round" stroke-linejoin="round">
        <rect x="4.8" y="10.6" width="14.4" height="9.4" rx="2.4"></rect>
        <path d="M8.4 10.6V7.9a3.6 3.6 0 0 1 7.2 0v2.7"></path>
        <path d="M12 14.2v2.2"></path>
      </g>
    </symbol>

    <symbol id="i-key" viewBox="0 0 24 24">
      <g fill="none" stroke="currentColor" stroke-width="1.7" stroke-linecap="round" stroke-linejoin="round">
        <circle cx="7.6" cy="12" r="3.9"></circle>
        <path d="M11.5 12h9.1M17.3 12v3.2M20.6 12v2.3"></path>
      </g>
    </symbol>

    <symbol id="i-eye" viewBox="0 0 24 24">
      <g fill="none" stroke="currentColor" stroke-width="1.7" stroke-linecap="round" stroke-linejoin="round">
        <path d="M2.8 12C4.9 7.9 8.2 5.7 12 5.7s7.1 2.2 9.2 6.3c-2.1 4.1-5.4 6.3-9.2 6.3S4.9 16.1 2.8 12Z"></path>
        <circle cx="12" cy="12" r="2.75"></circle>
      </g>
    </symbol>

    
    <symbol id="i-search" viewBox="0 0 24 24">
      <g fill="none" stroke="currentColor" stroke-width="1.7" stroke-linecap="round">
        <circle cx="10.8" cy="10.8" r="6.1"></circle>
        <path d="m15.5 15.5 4.7 4.7"></path>
      </g>
    </symbol>

    <symbol id="i-filter" viewBox="0 0 24 24">
      <g fill="none" stroke="currentColor" stroke-width="1.7" stroke-linecap="round" stroke-linejoin="round">
        <path d="M3.9 5h16.2l-6.2 7.2v5.1l-4-2.1v-3Z"></path>
      </g>
    </symbol>

    <symbol id="i-camera" viewBox="0 0 24 24">
      <g fill="none" stroke="currentColor" stroke-width="1.7" stroke-linecap="round" stroke-linejoin="round">
        <path d="M8.7 6.6 10 4.5h4l1.3 2.1h3.1a2.5 2.5 0 0 1 2.5 2.5v7.9a2.5 2.5 0 0 1-2.5 2.5H5.6a2.5 2.5 0 0 1-2.5-2.5V9.1a2.5 2.5 0 0 1 2.5-2.5Z"></path>
        <circle cx="12" cy="12.9" r="3.35"></circle>
      </g>
    </symbol>

    <symbol id="i-photo" viewBox="0 0 24 24">
      <g fill="none" stroke="currentColor" stroke-width="1.7" stroke-linecap="round" stroke-linejoin="round">
        <rect x="3.4" y="4.9" width="17.2" height="14.2" rx="2.6"></rect>
        <circle cx="8.7" cy="9.6" r="1.75"></circle>
        <path d="m5.3 16.9 4.2-4.2a1.25 1.25 0 0 1 1.77 0l2.83 2.83 1.6-1.6a1.25 1.25 0 0 1 1.77 0l3 3"></path>
      </g>
    </symbol>

    <symbol id="i-send" viewBox="0 0 24 24">
      <g fill="none" stroke="currentColor" stroke-width="1.7" stroke-linecap="round" stroke-linejoin="round">
        <path d="M20.4 3.6 10 14"></path>
        <path d="M20.4 3.6 14.2 20.2a.42.42 0 0 1-.78.02L10 14l-6.22-3.42a.42.42 0 0 1 .02-.78Z"></path>
      </g>
    </symbol>

    <symbol id="i-pin" viewBox="0 0 24 24">
      <g fill="none" stroke="currentColor" stroke-width="1.7" stroke-linecap="round" stroke-linejoin="round">
        <path d="M12 21.1c4.1-3.9 6.2-7.3 6.2-10.2a6.2 6.2 0 0 0-12.4 0c0 2.9 2.1 6.3 6.2 10.2Z"></path>
        <circle cx="12" cy="10.9" r="2.4"></circle>
      </g>
    </symbol>

    <symbol id="i-clock" viewBox="0 0 24 24">
      <g fill="none" stroke="currentColor" stroke-width="1.7" stroke-linecap="round" stroke-linejoin="round">
        <circle cx="12" cy="12" r="8.3"></circle>
        <path d="M12 7.4V12l3.2 1.9"></path>
      </g>
    </symbol>

    <symbol id="i-doc" viewBox="0 0 24 24">
      <g fill="none" stroke="currentColor" stroke-width="1.7" stroke-linecap="round" stroke-linejoin="round">
        <path d="M6.3 3.4h11.4v16.9l-1.9-1.4-1.9 1.4-1.9-1.4-1.9 1.4-1.9-1.4-1.9 1.4Z"></path>
        <path d="M9.2 8h5.6M9.2 11.5h5.6"></path>
      </g>
    </symbol>

    <symbol id="i-bell" viewBox="0 0 24 24">
      <g fill="none" stroke="currentColor" stroke-width="1.7" stroke-linecap="round" stroke-linejoin="round">
        <path d="M18 10.6a6 6 0 0 0-12 0c0 3-.7 4.6-1.5 5.7a.6.6 0 0 0 .48.96h14.04a.6.6 0 0 0 .48-.96c-.8-1.1-1.5-2.7-1.5-5.7Z"></path>
        <path d="M10.1 20.4a2.1 2.1 0 0 0 3.8 0"></path>
      </g>
    </symbol>

    <symbol id="i-globe" viewBox="0 0 24 24">
      <g fill="none" stroke="currentColor" stroke-width="1.7" stroke-linecap="round" stroke-linejoin="round">
        <circle cx="12" cy="12" r="8.3"></circle>
        <path d="M3.7 12h16.6"></path>
        <path d="M12 3.7c2.3 2.3 3.5 5.1 3.5 8.3s-1.2 6-3.5 8.3c-2.3-2.3-3.5-5.1-3.5-8.3S9.7 6 12 3.7Z"></path>
      </g>
    </symbol>

    <symbol id="i-check" viewBox="0 0 24 24">
      <g fill="none" stroke="currentColor" stroke-width="1.7" stroke-linecap="round" stroke-linejoin="round">
        <path d="m5.2 12.6 4.4 4.4 9.2-9.8"></path>
      </g>
    </symbol>

    <symbol id="i-x" viewBox="0 0 24 24">
      <g fill="none" stroke="currentColor" stroke-width="1.7" stroke-linecap="round">
        <path d="m6.3 6.3 11.4 11.4M17.7 6.3 6.3 17.7"></path>
      </g>
    </symbol>

    <symbol id="i-plus" viewBox="0 0 24 24">
      <g fill="none" stroke="currentColor" stroke-width="1.7" stroke-linecap="round">
        <path d="M12 5.4v13.2M5.4 12h13.2"></path>
      </g>
    </symbol>

    <symbol id="i-chevron" viewBox="0 0 24 24">
      <g fill="none" stroke="currentColor" stroke-width="1.7" stroke-linecap="round" stroke-linejoin="round">
        <path d="m9 5.2 6.9 6.8L9 18.8"></path>
      </g>
    </symbol>

  </defs>
</svg>